<?xml version="1.0" encoding="utf-8"?>
<!-- Generator: Adobe Illustrator 24.1.1, SVG Export Plug-In . SVG Version: 6.00 Build 0)  -->
<svg version="1.1" id="Layer_1" xmlns="http://www.w3.org/2000/svg" xmlns:xlink="http://www.w3.org/1999/xlink" x="0px" y="0px"
	 viewBox="0 0 592 47.7" style="enable-background:new 0 0 592 47.7;" xml:space="preserve">
<style type="text/css">
	.st0{fill:#FFFFFF;}
</style>
<g>
	<path class="st0" d="M4,4.2h10.3L20,32.9l7-28.8h10.6l6.8,28.8l5.7-28.8h10.4L50.2,43.7H38.5l-6.3-26l-6.5,26H14L4,4.2z"/>
	<path class="st0" d="M95.1,11.9H80.6v8h12.9v7.4H80.6V36h14.6v7.7H70.9V4.2h24.2V11.9z"/>
	<path class="st0" d="M125.3,3.7c9.4,0,16.5,5.3,18.8,13.9h-10.6c-1.6-3.4-4.6-5.1-8.3-5.1c-5.9,0-10,4.4-10,11.4s4.1,11.4,10,11.4
		c3.7,0,6.6-1.7,8.3-5.1H144c-2.3,8.6-9.3,13.8-18.8,13.8c-11.7,0-19.9-8.3-19.9-20.1S113.6,3.7,125.3,3.7z"/>
	<path class="st0" d="M174.2,44.1c-11.2,0-20.3-8.4-20.3-20.3c0-11.9,9.1-20.2,20.3-20.2c11.3,0,20.2,8.3,20.2,20.2
		C194.5,35.7,185.4,44.1,174.2,44.1z M174.2,35.3c6.3,0,10.4-4.6,10.4-11.5c0-7-4.1-11.5-10.4-11.5c-6.4,0-10.5,4.4-10.5,11.5
		C163.8,30.7,167.8,35.3,174.2,35.3z"/>
	<path class="st0" d="M239.7,25.3h-21.3v18.4h-3.9V4.3h3.9V22h21.3V4.3h3.9v39.4h-3.9V25.3z"/>
	<path class="st0" d="M276,44.1c-11,0-19.5-8.3-19.5-20.1c0-11.8,8.4-20.1,19.5-20.1c11.1,0,19.5,8.3,19.5,20.1
		C295.4,35.8,287.1,44.1,276,44.1z M276,40.7c8.7,0,15.4-6.4,15.4-16.7S284.7,7.4,276,7.4c-8.7,0-15.4,6.3-15.4,16.6
		S267.2,40.7,276,40.7z"/>
	<path class="st0" d="M320.2,44.1c-7.9,0-13.1-4.5-13.3-10.5h4.2c0.3,3.3,2.8,7.2,9.1,7.2c5.5,0,8.7-3.2,8.7-7.3
		c0-11.6-21.6-4.3-21.6-19.1c0-6.1,5-10.5,12.6-10.5c7.5,0,12,4.2,12.7,9.6h-4.3c-0.5-2.8-3.1-6.1-8.6-6.2c-4.6-0.1-8.4,2.5-8.4,7
		c0,11.4,21.6,4.4,21.6,19C332.9,38.7,328.5,44.1,320.2,44.1z"/>
	<path class="st0" d="M358,26.9H350v16.8h-3.9V4.3H358c9.1,0,13.3,4.8,13.3,11.3C371.3,22,367.2,26.9,358,26.9z M358,23.5
		c6.6,0,9.2-3,9.2-7.9c0-5.1-2.6-8-9.2-8H350v15.9H358z"/>
	<path class="st0" d="M383.5,4.3h3.9v39.4h-3.9V4.3z"/>
	<path class="st0" d="M399.2,4.3H425v3.3h-10.9v36.1h-3.9V7.6h-11V4.3z"/>
	<path class="st0" d="M459.7,34.3h-17.9l-3.4,9.3h-4.2l14.4-38.9h4.4l14.3,38.9h-4.2L459.7,34.3z M450.8,9.8L443,31.1h15.5
		L450.8,9.8z"/>
	<path class="st0" d="M483.2,4.3v36.2h14.1v3.2h-18.1V4.3H483.2z"/>
	<path class="st0" d="M508.6,4.3h3.9v39.4h-3.9V4.3z"/>
	<path class="st0" d="M524.3,4.3h25.8v3.3h-10.9v36.1h-3.9V7.6h-11V4.3z"/>
	<path class="st0" d="M558.7,4.3h4.4l10.2,20.4l10.2-20.4h4.4l-12.6,24v15.3h-3.9V28.4L558.7,4.3z"/>
</g>
</svg>
